<?xml version="1.0" encoding="UTF-8" standalone="no"?> <svg width="512" height="512" viewBox="0 0 512 512" fill="none" xmlns="http://www.w3.org/2000/svg">
<path d="M32 128C32 74.9807 74.9807 32 128 32H384C437.019 32 480 74.9807 480 128V384C480 437.019 437.019 480 384 480H128C74.9807 480 32 437.019 32 384V128Z" fill="#597DDC"/>
<path d="M32 112C32 67.8172 67.8172 32 112 32H368C412.183 32 448 67.8172 448 112V368C448 412.183 412.183 448 368 448H112C67.8172 448 32 412.183 32 368V112Z" fill="#6EBAFF"/>
<path fill-rule="evenodd" clip-rule="evenodd" d="M24 128C24 70.5624 70.5624 24 128 24H384C441.438 24 488 70.5624 488 128V384C488 441.438 441.438 488 384 488H128C70.5624 488 24 441.438 24 384V128ZM128 40C79.3989 40 40 79.3989 40 128V384C40 432.601 79.3989 472 128 472H384C432.601 472 472 432.601 472 384V128C472 79.3989 432.601 40 384 40H128Z" fill="black"/>
<path fill-rule="evenodd" clip-rule="evenodd" d="M172 148H352C363.046 148 372 139.046 372 128C372 116.954 363.046 108 352 108H168C148.118 108 132 124.118 132 144V368C132 387.882 148.118 404 168 404H344C363.882 404 380 387.882 380 368V272C380 252.118 363.882 236 344 236H256C244.954 236 236 244.954 236 256C236 267.046 244.954 276 256 276H340V364H172V148Z" fill="white"/>
<path fill-rule="evenodd" clip-rule="evenodd" d="M124 144C124 119.699 143.699 100 168 100H352C367.464 100 380 112.536 380 128C380 143.464 367.464 156 352 156H180V356H332V284H256C240.536 284 228 271.464 228 256C228 240.536 240.536 228 256 228H344C368.301 228 388 247.699 388 272V368C388 392.301 368.301 412 344 412H168C143.699 412 124 392.301 124 368V144ZM168 116C152.536 116 140 128.536 140 144V368C140 383.464 152.536 396 168 396H344C359.464 396 372 383.464 372 368V272C372 256.536 359.464 244 344 244H256C249.373 244 244 249.373 244 256C244 262.627 249.373 268 256 268H340C344.418 268 348 271.582 348 276V364C348 368.418 344.418 372 340 372H172C167.582 372 164 368.418 164 364V148C164 143.582 167.582 140 172 140H352C358.627 140 364 134.627 364 128C364 121.373 358.627 116 352 116H168Z" fill="black"/>
</svg>
